# xmcd
#
# Track frame offsets:
#         150
#       17305
#       34657
#       55872
#       69365
#       81767
#       97027
#      114547
#      125325
#      135992
#      157510
#      171300
#      185477
#      197002
#      212515
#      224960
#
# Disc length:   3199 seconds
#
# Revision:        2
# Processed by: cddbd v1.5.2PL0 Copyright (c) Steve Scherf et al.
# Submitted via: libcddb 1.3.2
#
DISCID=d50c7d10
DTITLE=野坂昭如 - 絶唱！野坂昭如　マリリン・モンロー・ノー・リターン
DYEAR=1975
DGENRE=Other
TTITLE0=マリリン･モンロー･ノー･リターン
TTITLE1=黒の舟唄
TTITLE2=別離のかたち
TTITLE3=かもめの3／4（シーサン）
TTITLE4=大挽歌
TTITLE5=花ざかりの森
TTITLE6=黒の舟唄3／4（ワルツ）
TTITLE7=男坂･女坂
TTITLE8=外道！ああ実感
TTITLE9=チュウインガム・ブルース
TTITLE10=ヴァージン･ブルース
TTITLE11=おんじょろ節
TTITLE12=春・“花”
TTITLE13=夏･“蛍”
TTITLE14=秋・“紅葉”
TTITLE15=冬・“雪”
EXTD=
EXTT0=
EXTT1=
EXTT2=
EXTT3=
EXTT4=
EXTT5=
EXTT6=
EXTT7=
EXTT8=
EXTT9=
EXTT10=
EXTT11=
EXTT12=
EXTT13=
EXTT14=
EXTT15=
PLAYORDER=
